<?xml version="1.0" standalone="no"?><!DOCTYPE svg PUBLIC "-//W3C//DTD SVG 1.1//EN" "http://www.w3.org/Graphics/SVG/1.1/DTD/svg11.dtd"><svg t="1510059083965" class="icon" style="" viewBox="0 0 2425 1024" version="1.1" xmlns="http://www.w3.org/2000/svg" p-id="2241" xmlns:xlink="http://www.w3.org/1999/xlink" width="113.671875" height="48"><defs><style type="text/css"></style></defs><path d="M512 180.2418021291495h1014.7897821485994C1686.8143246680497 180.2418021291495 1819.5176036715507 312.94508113265044 1819.5176036715507 472.96962365210055S1686.8143246680497 765.6974451750518 1526.7897821485994 765.6974451750518h-1014.7897821485994C351.97545748054984 765.6974451750518 219.2721784770489 632.9941661715509 219.2721784770489 472.96962365210055S351.97545748054984 180.2418021291495 512 180.2418021291495z" fill="" p-id="2242"></path><path d="M512 180.2418021291495h1014.7897821485994C1686.8143246680497 180.2418021291495 1819.5176036715507 312.94508113265044 1819.5176036715507 472.96962365210055S1686.8143246680497 765.6974451750518 1526.7897821485994 765.6974451750518h-1014.7897821485994C351.97545748054984 765.6974451750518 219.2721784770489 632.9941661715509 219.2721784770489 472.96962365210055S351.97545748054984 180.2418021291495 512 180.2418021291495z" fill="#4BA5FA" p-id="2243"></path><path d="M796.9217465430498 457.35747296810155L753.9883323431017 414.42405949234956V371.49064529240127c0-19.515187811851504-15.612150683999065-35.127338495850566-35.127338495850566-35.127338495850566h-46.83645132780075l-42.93341347575187-42.93341347575187c-11.709112831950188-11.709112831950188-35.127338495850566-11.709112831950188-46.83645205199719 0l-39.030376347899434 42.93341347575187H500.29088716804984c-19.515187811851504 0-35.127338495850566 15.612150683999065-35.127338495850566 35.127338495850566V414.42405949234956L422.2301344722509 457.35747296810155c-11.709112831950188 11.709112831950188-11.709112831950188 35.127338495850566 0 46.83645205199719l42.93341419994831 42.93341347575187v46.83645132780075c0 19.515187811851504 15.612150683999065 35.127338495850566 35.127338495850566 35.12733922004699h46.83645132780075l42.93341419994831 42.93341347575187c11.709112831950188 11.709112831950188 35.127338495850566 11.709112831950188 46.83645132780075 0l42.93341347575187-42.93341347575187H726.6670695513487c19.515187811851504 0 35.127338495850566-15.612150683999065 35.127338495850566-35.12733922004699v-46.83645132780075L804.7278215229511 504.1939250200986c3.9030378520488735-11.709112831950188 3.9030378520488735-35.127338495850566-7.8060749799013145-46.83645205199719zM500.29088716804984 492.48481218814845l19.515187811851504-19.515188536047937 54.642527031898496 42.93341419994831 128.8002418756485-124.89720402359961 15.612149959802629 15.612150683999065-140.50935398340226 163.92757964730262-78.06075269579887-78.06075197160243z" fill="#FFFFFF" p-id="2244"></path><path d="M1074.0374181061984 340.26634464859956h140.50935398340226v23.418225663900376h-308.33997220695016v-23.418225663900376h144.41239183545113c-3.9030378520488735-11.709112831950188-7.8060749799013145-19.515187811851504-11.709112831950188-27.321263515949248l27.321263515949248-3.9030378520488735c0 7.8060749799013145 3.9030378520488735 19.515187811851504 7.806075704097747 31.22430136799813z m54.64252630770205 288.8247843950987l-7.8060749799013145-19.515188536047937h27.321263515949248c15.612150683999065 0 23.418225663900376-3.9030378520488735 23.418225663900376-15.612150683999065V496.3878493160009h-226.37618238329887v136.60631685554984H921.8189505666494v-156.1215046674013h273.21263371109967v124.89720402359961c0 23.418225663900376-11.709112831950188 35.127338495850566-39.030376347899434 35.127338495850566h-27.321263515949248z m27.321263515949248-245.8913709193468V453.45443584024906h-195.15188101530077V383.19975812435143h195.15188101530077z m-23.418225663900376 23.418226388096812h-148.3154296875v27.321262791752815h148.3154296875v-27.321262791752815z m-3.9030378520488735 113.18809046745301v70.25467771589757h-136.60631685554984V519.8060749799013h136.60631685554984z m-23.418225663900376 19.515188536047937h-93.6729026556015v31.22430064380169h93.6729026556015v-31.22430064380169z" fill="#FFFFFF" p-id="2245"></path><path d="M1362.8622017771004 582.2546769917011c-31.22430064380169 11.709112831950188-66.35163986384869 23.418225663900376-105.3820154875517 31.22430136799813l-3.9030378520488735-23.418225663900376c42.93341419994831-7.8060749799013145 78.06075269579887-15.612150683999065 109.28505333960055-31.22430136799813v23.418225663900376z m-19.515187811851504-265.4065580070019c-19.515187811851504 42.93341419994831-35.127338495850566 78.06075269579887-54.642527031898496 105.3820154875517 15.612150683999065 0 35.127338495850566-3.9030378520488735 50.739489179849635-7.8060749799013145 7.8060749799013145-11.709112831950188 15.612150683999065-23.418225663900376 19.515187811851504-39.030376347899434l23.418226388096812 7.8060749799013145c-31.22430064380169 58.54556415975095-58.54556415975095 97.57594050765039-81.96379054784775 120.99416689574718 23.418225663900376-3.9030378520488735 50.739489179849635-11.709112831950188 78.06075269579887-19.515188536047937v23.418225663900376c-39.030376347899434 11.709112831950188-74.15771484375 19.515187811851504-105.38201621174812 23.418225663900376l-7.8060749799013145-23.418225663900376c3.9030378520488735 0 7.8060749799013145-3.9030378520488735 11.709112831950188-7.8060749799013145 15.612150683999065-11.709112831950188 31.22430064380169-35.127338495850566 50.739489179849635-66.35163986384869-19.515187811851504 3.9030378520488735-39.030376347899434 7.8060749799013145-62.44860201179981 7.806075704097747l-7.8060749799013145-23.418225663900376c3.9030378520488735 0 7.8060749799013145-3.9030378520488735 11.709112831950188-7.806075704097747 19.515187811851504-31.22430064380169 39.030376347899434-66.35163986384869 50.739489179849635-105.3820154875517l23.418225663900376 11.709112831950188z m39.030376347899434 31.22430064380169v-23.418225663900376h156.1215046674013v15.612150683999065c-3.9030378520488735 31.22430064380169-11.709112831950188 58.54556415975095-15.612150683999065 81.96378982365131h42.93341419994831v15.612150683999065c-7.8060749799013145 46.83645132780075-23.418225663900376 89.76986552774905-50.739489179849635 124.89720402359961 19.515187811851504 19.515187811851504 39.030376347899434 35.127338495850566 62.44860201179981 50.739489179849635l-15.612150683999065 19.515187811851504c-23.418225663900376-15.612150683999065-46.83645132780075-35.127338495850566-62.44860201179981-54.64252630770205-19.515187811851504 23.418225663900376-46.83645132780075 39.030376347899434-78.06075269579887 54.64252630770205l-11.709112831950188-23.418225663900376c31.22430064380169-15.612150683999065 54.642527031898496-31.22430064380169 74.15771484375-54.64252630770205-19.515187811851504-27.321263515949248-39.030376347899434-62.44860201179981-46.83645132780075-97.57594123184681-11.709112831950188 74.15771484375-35.127338495850566 132.70327900350094-70.25467699170113 171.7336560755968l-19.515188536047937-15.612150683999065c46.83645132780075-50.739489179849635 70.25467699170113-132.70327900350094 70.25467771589757-245.89137019515036v-19.515188536047937h-35.127338495850566z m156.1215046674013 93.67290337979793h-50.739489179849635c7.8060749799013145-23.418225663900376 11.709112831950188-54.642527031898496 19.515187811851504-93.67290337979793h-70.25467699170113v58.545564883947364c7.8060749799013145 50.739489179849635 27.321263515949248 97.57594050765039 58.54556415975095 132.70327900350094 23.418225663900376-27.321263515949248 35.127338495850566-58.54556415975095 42.93341419994831-97.57594050765039z" fill="#FFFFFF" p-id="2246"></path></svg>