<?xml version="1.0" standalone="no"?><!DOCTYPE svg PUBLIC "-//W3C//DTD SVG 1.1//EN" "http://www.w3.org/Graphics/SVG/1.1/DTD/svg11.dtd"><svg t="1510197557872" class="icon" style="" viewBox="0 0 1024 1024" version="1.1" xmlns="http://www.w3.org/2000/svg" p-id="3854" xmlns:xlink="http://www.w3.org/1999/xlink" width="128" height="128"><defs><style type="text/css"></style></defs><path d="M510.999721 2.85794C229.063913 2.85794 0.428691 231.350265 0.428691 513.42897s228.635222 510.57103 510.57103 510.57103c282.078705 0 510.57103-228.492325 510.57103-510.57103S793.078426 2.85794 510.999721 2.85794zM483.420597 826.516327c-75.878314-5.572984-113.031538-59.445158-106.601172-125.034887 6.430366-67.304493 96.884175-157.758303 80.593916-214.917108-8.002233-28.293609-128.321518-7.144851-134.46609-26.864639-7.573542-24.435389 82.451577-96.884175 188.05247-80.593916 21.720346 3.286631 73.877756 53.014792 80.736813 80.593916 15.28998 62.731789-20.005582 139.038794-53.729278 188.195367-23.578007 37.867709-33.866592 39.153782-26.864638 80.593916 21.863243 20.720067 35.152665 30.294167 107.458554 26.864638-26.864639 61.302819-112.174156 73.163271-135.180575 71.162713z m54.586659-474.275188c-44.583868 0-80.736813-36.010047-80.736812-80.593916s36.152944-80.593916 80.736812-80.593916 80.593916 36.010047 80.593916 80.593916c-0.142897 44.440971-36.152944 80.593916-80.593916 80.593916z" fill="#58C2A8" p-id="3855"></path></svg>