<?xml version="1.0" standalone="no"?><!DOCTYPE svg PUBLIC "-//W3C//DTD SVG 1.1//EN" "http://www.w3.org/Graphics/SVG/1.1/DTD/svg11.dtd"><svg t="1510132353361" class="icon" style="" viewBox="0 0 1024 1024" version="1.1" xmlns="http://www.w3.org/2000/svg" p-id="1836" xmlns:xlink="http://www.w3.org/1999/xlink" width="200" height="200"><defs><style type="text/css"></style></defs><path d="M411.12576 973.09184l-2.03776-0.16384c-38.14912-6.14912-68.15232-23.89504-84.49024-49.9712-14.17216-22.61504-17.41824-50.24256-9.15456-77.78816L447.19616 412.8768c1.11104-3.72224-0.4864-7.96672-3.45088-9.30816-3.69664 0.27136-16.16384 6.2464-31.86688 23.20384l-97.96608 116.82304-3.9168-28.64128c-1.73568-12.69248-1.10592-30.53056-0.65024-43.55072 0.15872-4.46976 0.29696-8.32512 0.29696-11.07968v-3.90656l2.176-3.23584c63.2064-93.98272 164.38272-164.85376 235.35616-164.85376l1.29536 0.06656c32.92672 3.34848 59.42272 17.44384 76.64128 40.7552 17.33632 23.4752 23.34208 54.10304 16.91136 86.24128l-0.31232 1.2288-132.352 433.44896c-0.36864 3.328 1.22368 6.65088 3.75296 7.78752 4.51584-0.24064 18.38592-7.10144 33.31072-23.20896l97.95072-116.80256 3.92704 28.6208c1.65376 12.06784 0.4608 28.89216-0.50176 42.40384-0.39424 5.59104-0.768 10.86464-0.768 13.8496v3.90656l-2.18112 3.24096c-55.54176 82.59072-119.34208 163.2256-233.72288 163.2256zM443.97568 377.9584c2.74432 0 5.35552 0.42496 7.77728 1.26976 16.08704 5.58592 25.04192 24.00256 19.95776 41.04192l-131.75808 432.3072c-6.09792 20.33152-3.85024 40.51456 6.34368 56.79104 12.40576 19.79904 35.16928 32.96768 65.86368 38.12352 90.25536-0.43008 147.34336-57.20576 209.37728-148.83328a415.3856 415.3856 0 0 1 0.73216-11.60192l0.23552-3.28192-57.05728 68.01408c-14.12608 15.3088-35.33824 31.67232-52.52096 31.67232a23.6544 23.6544 0 0 1-7.82336-1.26976c-14.78144-5.13536-23.75168-21.15072-20.84864-37.25312l0.35328-1.46432 132.43904-433.70496c4.80256-24.74496 0.36352-47.95392-12.52352-65.408-12.70272-17.2032-32.7424-27.71968-57.984-30.42816-61.41952 0.45056-153.4976 66.10432-211.3536 150.41024-0.05632 2.3296-0.14848 5.02272-0.25088 7.95648-0.0768 2.0992-0.1536 4.33664-0.22528 6.656l58.15296-69.32992c8.78592-9.51808 31.34976-31.6672 51.11296-31.6672zM611.1488 256.27136c-59.29472 0-104.00768-44.14464-104.00768-102.68672 0-58.53696 44.71296-102.67648 104.00768-102.67648 59.2896 0 104.00256 44.14464 104.00256 102.67648 0 58.54208-44.71296 102.68672-104.00256 102.68672z m0-179.7632c-45.43488 0-78.40768 32.41472-78.40768 77.07648 0 44.66688 32.9728 77.08672 78.40768 77.08672 45.42976 0 78.40256-32.41984 78.40256-77.08672 0-44.66176-32.9728-77.07648-78.40256-77.07648z" fill="#d81e06" p-id="1837"></path></svg>