<?xml version="1.0" standalone="no"?><!DOCTYPE svg PUBLIC "-//W3C//DTD SVG 1.1//EN" "http://www.w3.org/Graphics/SVG/1.1/DTD/svg11.dtd"><svg t="1510062152345" class="icon" style="" viewBox="0 0 1024 1024" version="1.1" xmlns="http://www.w3.org/2000/svg" p-id="3537" xmlns:xlink="http://www.w3.org/1999/xlink" width="48" height="48"><defs><style type="text/css"></style></defs><path d="M511.35488 16.384c-110.08 84.76672-228.56704 143.77984-431.54432 143.77984v372.52608c0 177.664 228.44416 491.31008 431.54432 491.31008 203.13088 0 431.41632-313.64608 431.41632-491.31008V160.16384c-203.10016 0-321.46432-59.01312-431.41632-143.77984z m369.82784 514.52928c0 152.29952-195.70176 421.18144-369.83808 421.18144-174.11584 0-369.95584-268.88704-369.95584-421.18144V211.55328c174.00832 0 275.584-50.59072 369.95584-123.25888 94.2592 72.66816 195.72736 123.25888 369.83808 123.25888v319.36zM512.48128 161.5872C433.9712 222.03904 349.47072 264.12544 204.70784 264.12544v265.68704c0 126.70976 162.92352 350.40256 307.77344 350.40256 144.8704 0 307.6864-223.6928 307.6864-350.40256V264.12544c-144.8448 0-229.26336-42.0864-307.6864-102.53824zM331.44832 400.52224v-24.59136h155.2384V349.7984h46.11072v26.12736h155.2384v24.59136H331.44832z m16.90624 301.25568v-172.14464h322.77504v119.88992c2.04288 34.82112-14.86336 51.2256-50.72384 49.18272h-35.3536v-24.59136h21.51936c17.41312 1.00864 25.6-6.67648 24.59136-23.05536v-95.29344h-242.8416v146.01728h-39.96672z m38.4256-196.736V426.6496h245.92384v35.3536c1.00864 29.73184-12.29824 44.06784-39.9616 43.03872H386.78016z m38.4256-23.05536h152.1664c12.29824 1.03424 17.91488-5.11488 16.90624-18.44224v-15.37024H425.20576v33.81248z m3.07712 178.29376v-79.9232h162.92352v41.4976c1.00864 26.65984-12.8256 39.45984-41.4976 38.4256H428.28288z m35.34848-21.51936h73.7792c12.29824 1.03424 17.91488-4.61312 16.90624-16.90624v-18.44224H463.63136v35.34848z" fill="#1296db" p-id="3538"></path></svg>